<svg xmlns="http://www.w3.org/2000/svg" width="140" height="38" viewBox="0 0 140 38">
    <g fill="none" fill-rule="evenodd">
        <path fill="#339D48" d="M1.652 22.819L1.65 35.596c0 .212-.033.39.3.39 3.3-.013 6.6-.01 9.9-.004.218 0 .281-.064.289-.28.032-.916.089-1.831.131-2.748.052-1.082.102-2.163.148-3.246.054-1.231.096-2.465.16-3.696.032-.598.02-1.195.056-1.793.031-.546-.003-1.111-.348-1.607-1.094-1.575-1.522-3.348-1.483-5.23.027-1.205.15-2.407.23-3.611.078-1.177.154-2.355.231-3.532.02-.268.117-.507.422-.494.298.012.448.224.448.524 0 .686-.005 1.369.05 2.057.096 1.23-.02 2.47.081 3.705.062.75.01 1.508.012 2.262 0 .216.06.44.305.452.275.013.291-.227.307-.442.05-.647.024-1.294.06-1.943.095-1.704.116-3.41.19-5.116.016-.39-.088-.787.059-1.173.07-.186.139-.37.385-.344.275.03.411.214.41.467-.005.37.028.734.048 1.1.063 1.172.013 2.346.079 3.518.047.855-.004 1.714.03 2.569.015.366.053.733.065 1.1.004.125.046.23.178.266.127.033.223-.02.3-.124.082-.114.063-.244.068-.37.024-.648.011-1.296.05-1.946.08-1.31.095-2.626.097-3.94.001-.714.081-1.423.09-2.136.004-.301.191-.491.487-.487.314.005.35.24.378.513.057.585.012 1.175.079 1.751.127 1.106.097 2.22.231 3.323.032.26-.007.52.036.79a7.52 7.52 0 0 1 .086 1.702c-.026.367-.05.744-.113 1.117-.199 1.193-.47 2.366-1.175 3.37-.434.617-.588 1.262-.556 1.983.074 1.68.148 3.362.22 5.042.058 1.313.11 2.624.17 3.937.036.812.083 1.625.115 2.437.006.19.054.273.264.272 2.097-.006 4.194-.006 6.29 0 .185.001.242-.058.251-.237.034-.582.1-1.162.129-1.744.082-1.706.093-3.414-.154-5.11-.283-1.935-.716-3.845-1.11-5.762-.204-.988-.4-1.98-.49-2.981-.136-1.517.075-3.02.33-4.517.372-2.176 1.107-4.194 2.53-5.93.165-.2.326-.386.61-.294.281.09.32.326.321.59.011 4.487.03 8.976-.062 13.463-.055 2.722-.067 5.445-.094 8.169-.007.69-.062 1.387.02 2.067.076.642.064 1.288.134 1.93.033.295.085.358.363.358 3.056-.008 6.11-.009 9.163 0 .275.001.379-.05.379-.353-.009-8.48-.008-16.96-.003-25.44 0-.221-.067-.336-.271-.439A6989.698 6989.698 0 0 1 18.024 1.94c-.23-.116-.401-.113-.634.004A3922.99 3922.99 0 0 1 2.074 9.585c-.332.164-.431.336-.43.687.013 4.182.008 8.365.008 12.547M.008 8.774C1.25 8.15 2.491 7.518 3.736 6.897c2.662-1.332 5.328-2.658 7.99-3.987 1.88-.939 3.763-1.872 5.636-2.823.234-.12.394-.113.623.003 2.492 1.259 4.99 2.502 7.485 3.752 2.984 1.497 5.952 3.022 8.957 4.474.815.394 1.103.836 1.098 1.765-.047 9.183-.029 18.366-.029 27.55-11.718 0-23.437-.001-35.157.007-.274 0-.34-.05-.339-.332.01-9.51.008-19.02.008-28.532"/>
        <path fill="#FDFEFD" d="M131.927 19.836c0 1.899.001 3.798-.003 5.698 0 .125.023.167.161.165a84.221 84.221 0 0 1 1.985 0c.138.002.176-.03.175-.17-.006-1.376-.002-2.753-.007-4.13 0-.134.029-.17.17-.17 1.303.007 2.606 0 3.907.008.16 0 .188-.044.186-.191a66.566 66.566 0 0 1 0-1.883c.002-.147-.041-.18-.184-.179-1.307.005-2.615.001-3.922.006-.126 0-.157-.034-.157-.156.006-.89.008-1.78-.002-2.669 0-.163.046-.194.2-.193 1.763.006 3.527.001 5.29.007.15.001.18-.044.177-.182a58.46 58.46 0 0 1 .001-1.663c.002-.133-.034-.162-.165-.162-2.547.005-5.093.005-7.64-.001-.152 0-.175.049-.175.183.004 1.894.003 3.788.003 5.682zm-10.33-.017c0 1.909.002 3.819-.001 5.728 0 .11.016.152.143.152 2.652-.005 5.304-.005 7.956 0 .125 0 .145-.04.144-.15-.006-.561-.009-1.12.001-1.68.003-.15-.046-.177-.185-.176-1.864.004-3.726.001-5.59.005-.123 0-.161-.028-.16-.155.006-.78.008-1.559-.001-2.338-.001-.144.042-.17.177-.169 1.313.005 2.625.001 3.938.006.133 0 .165-.034.164-.164a78.654 78.654 0 0 1 0-1.93c0-.13-.033-.163-.165-.162-1.318.005-2.636.001-3.954.006-.123 0-.16-.028-.16-.154.007-.821.004-1.643.005-2.464 0-.224-.027-.198.205-.198 1.794 0 3.589-.003 5.383.004.169 0 .198-.049.196-.2a52.975 52.975 0 0 1 0-1.633c.001-.132-.024-.176-.171-.175-2.588.005-5.176.005-7.765 0-.138 0-.161.04-.161.166.004 1.894.002 3.788.002 5.681zm-39.907 0l-.001 5.714c0 .09-.017.166.13.166 2.662-.005 5.325-.004 7.988 0 .106 0 .13-.032.13-.132a69.34 69.34 0 0 1 .001-1.695c.002-.142-.033-.18-.18-.18-1.864.006-3.727.002-5.59.006-.125 0-.16-.031-.16-.156.006-.78.008-1.559 0-2.338-.002-.147.044-.168.177-.168 1.42.005 2.838 0 4.257.007.15 0 .18-.045.179-.182a70.626 70.626 0 0 1 0-1.885c.002-.145-.028-.192-.187-.19-1.408.006-2.816 0-4.224.008-.174.001-.203-.052-.202-.208.008-.805.008-1.612 0-2.417-.002-.159.037-.198.199-.198 1.8.007 3.6.003 5.399.007.132.001.182-.02.18-.166-.011-.56-.01-1.12-.002-1.68.002-.137-.041-.16-.167-.16-2.584.005-5.167.005-7.75 0-.15 0-.18.042-.18.182.005 1.888.003 3.777.003 5.665zm-39.403.013c0 1.904.002 3.808-.003 5.712 0 .122.03.156.155.155a97.885 97.885 0 0 1 2.001 0c.133.001.165-.037.164-.164-.005-1.429-.001-2.857-.006-4.286-.001-.135.03-.172.172-.172 1.673.006 3.346.006 5.018 0 .142 0 .185.031.185.178-.007 1.429-.003 2.857-.007 4.285 0 .114.018.161.151.16a91.36 91.36 0 0 1 2.001 0c.122 0 .146-.035.146-.149-.004-3.813-.004-7.626 0-11.44 0-.109-.027-.14-.139-.138-.661.006-1.324.007-1.985-.001-.135-.001-.176.026-.175.168.006 1.465.001 2.93.008 4.395 0 .157-.046.184-.194.184a855.794 855.794 0 0 0-5.002 0c-.15.001-.18-.042-.18-.181.006-1.47.002-2.94.007-4.41 0-.123-.032-.157-.157-.155-.667.006-1.334.007-2-.001-.135-.002-.163.036-.163.164.005 1.899.003 3.798.003 5.696zm66.615.005c0 1.898.002 3.797-.002 5.697 0 .127.028.166.163.165a89.836 89.836 0 0 1 1.985 0c.138.002.173-.03.173-.17-.007-1.428-.002-2.856-.008-4.283 0-.146.043-.17.176-.168 1.679.004 3.356.005 5.034-.001.147-.001.17.043.17.175-.005 1.429 0 2.856-.007 4.285 0 .131.038.163.167.162.662-.007 1.324-.006 1.986 0 .111 0 .154-.02.154-.144a5532.79 5532.79 0 0 1 0-11.44c0-.127-.047-.142-.156-.142-.662.005-1.323.006-1.986-.001-.131-.001-.165.035-.165.165.005 1.47.001 2.94.007 4.41 0 .134-.028.172-.172.172a866.625 866.625 0 0 0-5.033 0c-.137 0-.176-.028-.175-.169.006-1.47.001-2.94.008-4.41 0-.143-.04-.17-.175-.168a73.68 73.68 0 0 1-1.97-.001c-.152-.002-.176.049-.176.184.004 1.894.002 3.787.002 5.682zm-39.011-.592l1.452 1.482c.61.624 1.223 1.245 1.829 1.874.085.089.125.061.195-.01.932-.957 1.867-1.91 2.8-2.865.153-.154.304-.31.484-.493v.224c0 2.023.002 4.049-.003 6.073-.001.14.037.171.174.17a72.5 72.5 0 0 1 1.953 0c.154.002.19-.039.19-.19-.005-3.85-.004-7.7-.005-11.549 0-.05.017-.103-.015-.15-.012.002-.024.001-.03.008l-1.735 1.766c-1.268 1.296-2.538 2.592-3.806 3.891-.085.088-.13.09-.217.001-.688-.711-1.38-1.417-2.07-2.122l-3.137-3.2-.371-.384c-.004.059-.006.074-.006.089-.001 3.902 0 7.804-.004 11.707 0 .12.045.131.147.131.672-.004 1.343-.006 2.016.001.134.001.163-.035.163-.163-.005-2.03-.004-4.06-.004-6.09v-.2z"/>
        <path fill="#339D48" d="M59.92 23.445c2.016 0 3.652-1.615 3.653-3.608 0-1.992-1.637-3.61-3.652-3.61-2.012 0-3.657 1.622-3.657 3.609 0 1.986 1.643 3.608 3.656 3.609zm-.543 2.371c-.214-.077-.442-.077-.662-.119-2.396-.47-4.316-2.396-4.741-4.768-.566-3.151 1.361-6.11 4.492-6.897 3.202-.805 6.526 1.166 7.323 4.342.823 3.284-1.225 6.562-4.566 7.302-.225.05-.458.072-.688.108-.028.004-.065-.01-.079.032h-1.08zM101.783 25.816c-.208-.072-.43-.076-.645-.118-2.436-.478-4.341-2.414-4.761-4.843A5.95 5.95 0 0 1 101.05 14c2.136-.447 4.004.13 5.584 1.62.084.08.058.117-.008.182-.504.493-1.007.987-1.504 1.488-.087.088-.128.075-.209-.004a3.576 3.576 0 0 0-2.612-1.058c-2.093.01-3.754 1.788-3.605 3.849.148 2.06 1.968 3.57 4.045 3.347a3.59 3.59 0 0 0 2.184-1.044c.079-.078.118-.077.196.001.498.5.999.995 1.506 1.486.08.08.074.12-.003.194-1.028.993-2.251 1.574-3.682 1.724-.028.003-.065-.01-.08.03h-1.08zM69.89 19.245v.201c0 2.03 0 4.06.004 6.09 0 .129-.028.164-.162.163a116 116 0 0 0-2.017-.001c-.1 0-.146-.012-.146-.132.003-3.902.003-7.803.003-11.706 0-.015.002-.03.007-.09l.371.384c1.046 1.068 2.092 2.133 3.136 3.2a528.71 528.71 0 0 1 2.071 2.123c.086.09.132.086.217-.001 1.267-1.3 2.537-2.594 3.807-3.89.577-.59 1.156-1.179 1.734-1.768.006-.005.019-.005.03-.008.032.047.015.101.015.15.001 3.85 0 7.7.005 11.55 0 .152-.035.192-.19.19-.65-.01-1.303-.009-1.953-.001-.137.002-.175-.028-.174-.17.005-2.023.003-4.048.003-6.072v-.224l-.483.493c-.935.955-1.87 1.908-2.802 2.866-.069.07-.108.097-.194.008-.606-.627-1.219-1.25-1.829-1.873-.474-.486-.95-.97-1.452-1.482M108.903 19.837c0-1.895 0-3.788-.002-5.682-.001-.135.022-.186.176-.184.656.01 1.313.009 1.97 0 .134 0 .175.026.174.169-.006 1.47-.001 2.94-.008 4.41 0 .14.037.17.175.17 1.677-.006 3.355-.006 5.033 0 .143 0 .173-.039.172-.173-.005-1.47-.001-2.94-.006-4.41-.001-.13.033-.166.165-.165a112.4 112.4 0 0 0 1.985 0c.109 0 .155.016.155.142a5532.79 5532.79 0 0 0 0 11.441c0 .124-.041.144-.154.143-.661-.005-1.323-.006-1.984.001-.13.001-.168-.03-.167-.162.005-1.429.001-2.856.006-4.285 0-.132-.024-.176-.17-.175-1.678.006-3.356.005-5.034 0-.133 0-.177.023-.176.169.007 1.427.002 2.855.008 4.284 0 .138-.035.171-.173.17a89.836 89.836 0 0 0-1.985 0c-.135 0-.163-.039-.163-.166.004-1.9.003-3.8.003-5.697M42.287 19.832c0-1.898.001-3.797-.003-5.696 0-.129.028-.166.163-.164.666.008 1.333.007 2 .001.125-.002.157.032.157.155-.005 1.47-.001 2.94-.006 4.41-.001.138.03.182.18.181 1.667-.005 3.334-.005 5.001 0 .148 0 .194-.027.194-.184-.007-1.465-.002-2.93-.008-4.394 0-.143.04-.17.175-.169.661.008 1.324.007 1.985.001.112-.001.14.03.138.138-.002 3.813-.002 7.627.001 11.44 0 .114-.024.148-.145.147-.668-.005-1.334-.006-2.002 0-.133.002-.15-.043-.15-.158.003-1.428 0-2.856.005-4.285.001-.147-.043-.178-.184-.177-1.672.005-3.345.005-5.017-.001-.142 0-.174.036-.173.173.005 1.428.001 2.856.006 4.285 0 .127-.03.164-.164.163-.667-.005-1.334-.005-2.001 0-.125.001-.155-.032-.155-.154.004-1.904.003-3.808.003-5.712M81.69 19.82c0-1.889.002-3.777-.003-5.665 0-.14.03-.183.18-.183 2.582.005 5.166.004 7.75.001.126 0 .17.023.167.16-.009.558-.01 1.119.001 1.678.003.148-.047.168-.18.168-1.798-.004-3.599-.001-5.398-.007-.162-.001-.201.039-.2.197.009.805.009 1.611 0 2.417 0 .157.03.208.203.207 1.408-.008 2.816-.002 4.224-.008.16 0 .189.045.187.192a70.553 70.553 0 0 0 0 1.883c0 .138-.029.184-.18.183-1.418-.007-2.837-.002-4.256-.007-.133 0-.18.022-.177.168.008.78.006 1.559 0 2.337 0 .125.035.157.16.156 1.863-.003 3.726 0 5.59-.004.147-.001.182.038.18.179a69.34 69.34 0 0 0 0 1.694c0 .102-.026.132-.131.132-2.663-.003-5.325-.004-7.989 0-.146 0-.128-.075-.128-.166V19.82M121.598 19.82c0-1.895.001-3.789-.003-5.682 0-.126.024-.166.162-.166 2.588.004 5.176.005 7.765 0 .147 0 .172.043.17.175a53.042 53.042 0 0 0 0 1.633c.004.152-.027.2-.194.2-1.796-.007-3.59-.004-5.385-.004-.23 0-.204-.027-.205.198 0 .822.003 1.642-.003 2.464 0 .126.037.153.158.153 1.318-.004 2.637 0 3.955-.005.133-.001.166.033.164.162a89.982 89.982 0 0 0 0 1.93c.002.13-.03.165-.163.164-1.313-.005-2.626 0-3.938-.006-.135 0-.179.025-.177.169.008.78.007 1.558.001 2.337 0 .127.037.156.16.155 1.864-.003 3.727 0 5.59-.004.14 0 .189.026.186.176-.01.56-.007 1.12-.002 1.68 0 .11-.018.15-.144.15-2.652-.005-5.304-.005-7.956 0-.127 0-.143-.043-.143-.151.003-1.91.002-3.82.002-5.729M131.927 19.836c0-1.894.001-3.788-.003-5.682 0-.134.023-.183.176-.183 2.546.006 5.092.006 7.639 0 .13 0 .167.03.165.163a58.46 58.46 0 0 0 0 1.663c.001.138-.027.183-.178.182-1.763-.006-3.527 0-5.29-.007-.154 0-.2.03-.2.193.01.89.008 1.78.002 2.669 0 .122.03.156.157.156 1.307-.005 2.615-.001 3.922-.006.143-.001.186.032.184.18a66.566 66.566 0 0 0 0 1.882c.002.147-.026.192-.186.19-1.301-.006-2.604 0-3.906-.007-.142 0-.172.036-.17.17.004 1.377 0 2.754.006 4.13.001.14-.037.172-.175.17a84.221 84.221 0 0 0-1.985 0c-.138.002-.16-.04-.16-.165.003-1.9.002-3.8.002-5.698"/>
    </g>
</svg>
